<?xml version="1.0" standalone="no"?>
<!DOCTYPE svg PUBLIC "-//W3C//DTD SVG 1.1//EN" "http://www.w3.org/Graphics/SVG/1.1/DTD/svg11.dtd" >
<!--
2013-9-30: Created.
-->
<svg>
<metadata>
Created by iconfont
</metadata>
<defs>

<font id="iconfont" horiz-adv-x="1024" >
  <font-face
    font-family="iconfont"
    font-weight="500"
    font-stretch="normal"
    units-per-em="1024"
    ascent="896"
    descent="-128"
  />
    <missing-glyph />
    
    <glyph glyph-name="xiangshang" unicode="&#58880;" d="M854.016 156.672l-313.344 309.248-313.344-309.248q-14.336-14.336-32.768-21.504t-37.376-7.168-36.864 7.168-32.256 21.504q-29.696 28.672-29.696 68.608t29.696 68.608l376.832 373.76q14.336 14.336 34.304 22.528t40.448 9.216 39.424-5.12 31.232-20.48l382.976-379.904q28.672-28.672 28.672-68.608t-28.672-68.608q-14.336-14.336-32.768-21.504t-37.376-7.168-36.864 7.168-32.256 21.504z"  horiz-adv-x="1024" />

    
    <glyph glyph-name="appyingyongtubiao" unicode="&#58883;" d="M279.484 173.892l232.516-238.524 232.858 237.431c72.567 68.267 119.194 156.877 119.194 261.598 0 194.423-157.696 351.71-352.051 351.71s-352.051-156.262-352.051-350.618c0-105.745 47.65-194.423 121.446-262.69l-1.911 1.092zM512 595.097c89.088 0 161.314-72.226 161.314-161.314s-72.226-161.451-161.314-161.451c-89.088 0-161.382 72.294-161.382 161.382s72.294 161.382 161.382 161.382zM785.067-149.317c0-36.523-29.628-66.15-66.15-66.15h-413.833c-36.523 0-66.15 29.628-66.15 66.15v4.301c0 36.454 29.628 66.082 66.15 66.082h413.901c36.454 0 66.082-29.628 66.082-66.15v-4.233z"  horiz-adv-x="1024" />

    
    <glyph glyph-name="pinterest" unicode="&#58905;" d="M899.792896 844.793856 124.209152 844.793856C83.88608 844.793856 51.2 812.105728 51.2 771.784704l0-775.59808c0-40.308736 32.68608-72.994816 73.009152-72.994816l775.583744 0c40.321024 0 73.007104 32.68608 73.007104 72.994816L972.8 771.784704C972.8 812.105728 940.111872 844.793856 899.792896 844.793856zM559.663104 187.805696c-44.589056 3.436544-63.297536 25.540608-98.260992 46.811136-19.226624-100.83328-42.708992-197.523456-112.279552-248.031232-21.460992 152.38144 31.52896 266.815488 56.154112 388.329472-41.971712 70.664192 5.046272 212.8384 93.558784 177.772544 108.898304-43.06944-94.375936-262.629376 42.067968-290.054144 142.442496-28.655616 200.628224 247.17312 112.293888 336.881664-127.717376 129.517568-371.531776 2.932736-341.547008-182.44608 7.309312-45.3632 54.083584-59.088896 18.710528-121.655296-81.707008 18.079744-106.049536 82.520064-102.981632 168.394752 5.031936 140.652544 126.326784 239.003648 247.973888 252.653568 153.899008 17.256448 298.20928-56.434688 318.160896-201.162752C816.03584 351.987712 724.129792 175.030272 559.663104 187.805696z"  horiz-adv-x="1024" />

    
    <glyph glyph-name="bao-copy" unicode="&#58909;" d="M849.106 690.265h-168.661v55.688c0 30.765-25.159 55.686-56.221 55.686h-224.882c-31.062 0-56.221-24.921-56.221-55.686v-55.688h-168.661c-62.095 0-112.441-49.866-112.441-111.368v-501.166c0-61.505 50.346-111.37 112.441-111.37h674.646c62.095 0 112.441 49.866 112.441 111.37v501.166c0 61.503-50.346 111.368-112.441 111.368zM399.342 718.11c0 15.368 12.593 27.844 28.11 27.844h168.662c15.517 0 28.11-12.474 28.11-27.844v-27.844h-224.882v27.844zM905.326 77.733c0-30.767-25.159-55.688-56.221-55.688h-674.646c-31.062 0-56.221 24.921-56.221 55.688v306.267h285.067c-2.332-8.966-3.964-18.18-3.964-27.844 0-61.503 50.346-111.368 112.441-111.368 62.095 0 112.441 49.866 112.441 111.368 0 9.663-1.63 18.877-3.964 27.844h285.067v-306.267zM455.562 356.156c0 10.19 2.979 19.628 7.786 27.844h96.868c4.808-8.216 7.787-17.653 7.787-27.844 0-30.765-25.159-55.685-56.221-55.685-31.061-0.001-56.22 24.92-56.22 55.685zM905.326 439.683h-787.087v139.215c0 30.765 25.159 55.685 56.221 55.685h674.646c31.062 0 56.221-24.921 56.221-55.685v-139.215z"  horiz-adv-x="1024" />

    
    <glyph glyph-name="jiangbei" unicode="&#58902;" d="M1023.114674 745.076c-1.685 19.85-16.51 34.985-34.215 34.985L880.935674 780.061c-10.64 29.595-36.07 52.095-68.44 52.095L213.626674 832.156c-32.367 0-57.805-22.5-68.435-52.095L37.227674 780.061c-17.712 0-32.54-15.135-34.22-34.985-4.095-48.35-7.39-137.632 14.27-208.342 16.427-61.925 77.08-138.307 162.89-197.327 20.555-14.13 40.67-28.32 60.075-41.86 11.38-8.215 22.905-16.165 34.552-23.795 26.59-17.97 51.347-33.635 73.455-44.825 24.045-40.44 48.062-77.155 71.125-109.01l1.887-4.115c3.423-6.675 8.297-12.53 14.257-17.595 0.487-0.635 0.967-1.25 1.455-1.885L256.189674 96.322c-38.575 0-69.85-35.205-69.85-78.64l0 0c0-0.46 0.022-0.925 0.033-1.39l-0.033 0 0-77.26 69.85 0 513.746 0 69.845 0 0 77.26-0.02 0c0 0.465 0.02 0.915 0.02 1.39l0 0c0 43.435-31.27 78.64-69.845 78.64L589.111674 96.322c7.03 5.48 12.74 11.95 16.6 19.48l3.835 8.395c22.26 30.77 45.415 66.07 68.625 104.87 22.03 11.19 46.685 26.79 73.155 44.685 11.645 7.63 23.18 15.585 34.56 23.795 19.41 13.54 39.515 27.73 60.07 41.87 85.81 59.01 146.46 135.392 162.895 197.317C1030.509674 607.443 1027.214674 696.726 1023.114674 745.076zM260.684674 386.951c-6.855 4.487-13.642 9.167-20.342 14.007-11.42 7.967-23.262 16.327-35.36 24.642-50.517 34.742-86.22 79.71-95.892 116.16-12.747 41.625-10.81 94.18-8.4 122.645 0.993 11.687 9.72 20.595 20.145 20.595l39.327 0 1.425-3.107c10.317-71.432 47.525-179.987 104.1-298.292C264.029674 384.696 262.364674 385.819 260.684674 386.951zM917.040674 541.759c-9.68-36.447-45.38-81.42-95.9-116.157-12.09-8.32-23.93-16.682-35.36-24.647-6.695-4.835-13.485-9.515-20.345-14.007-1.34-0.91-2.67-1.8-4-2.688 57.245 119.145 94.94 228.639 105.52 300.739l38.335 0c10.43 0 19.155-8.91 20.14-20.595C927.845674 635.941 929.780674 583.386 917.040674 541.759z"  horiz-adv-x="1027" />

    
    <glyph glyph-name="che" unicode="&#58983;" d="M508.518745 896 359.983618 896c-79.893782 0-122.270038-43.185431-141.799357-93.751519l-103.979002-265.481773C72.963075 531.535268 0 483.612485 0 392.937057l0-337.759501 116.93929 0 0-84.105171c0-132.866554 158.280783-131.324217 158.280783 0l0 84.105171 715.133028 0 0-84.105171c0-131.324217 158.280783-132.866554 158.280783 0l0 84.105171 116.93929 0L1265.573174 392.937057c0.039233 90.675428-72.955719 138.598211-114.139054 143.829651l0 0L1047.480864 802.248481c-19.557517 50.567315-61.939903 93.751519-141.926863 93.751519L758.738985 896 508.518745 896 508.518745 896zM254.555457 259.68308c-49.523969 0-89.717904 40.932001-89.717904 91.46376 0 50.573445 40.193935 91.499315 89.717904 91.499315 49.526421 0 89.686027-40.92587 89.686027-91.499315C344.241484 300.607725 304.081878 259.68308 254.555457 259.68308L254.555457 259.68308 254.555457 259.68308zM221.820645 542.994904 300.082591 748.407685c9.783663 29.32279 24.453027 50.579575 58.760826 50.915505l547.97584 0c34.158224-0.33593 48.845978-21.593941 58.645579-50.915505l78.286466-205.412781L221.820645 542.994904 221.820645 542.994904 221.820645 542.994904zM1011.048368 259.68308c-49.531325 0-89.686027 40.932001-89.686027 91.46376 0 50.573445 40.162058 91.499315 89.686027 91.499315 49.58527 0 89.744876-40.92587 89.744876-91.499315C1100.793244 300.607725 1060.626282 259.68308 1011.048368 259.68308L1011.048368 259.68308 1011.048368 259.68308zM1011.048368 259.68308"  horiz-adv-x="1266" />

    
    <glyph glyph-name="dianhua-copy" unicode="&#58887;" d="M61.303 692.087c0 0 80.009 170.052 215.245 0 134.963-170.257 0-220.16 0-220.16s-89.975-85.129-20.070-140.22c70.042-54.886 240.299-205.073 240.299-205.073s67.447-89.907 139.947-24.917c90.112 74.82 125.133 87.45 195.106 34.953 122.129-91.068 160.29-182.682-24.781-255.181-205.21-100.079-570.436 245.214-570.436 245.214s-360.38 345.225-175.309 565.385zM526.677 604.092c0 0-67.447-7.168-55.159 63.147 5.666 31.949 60.075 42.462 110.114 27.238 50.313-14.95 237.773-97.485 245.35-307.746 0 0-13.858-58.982-57.822-47.309-47.241 12.561-34.816 101.99-37.478 119.398-2.389 17.476-67.311 152.713-205.005 145.271zM656.657 786.705c0 0-82.534-8.602-67.311 77.073 6.758 39.322 73.523 52.156 134.963 33.792 61.235-18.432 290.884-119.467 299.964-376.695 0 0-19.661-80.282-70.178-58.368-44.169 19.456-46.421 128-49.357 149.436-3.345 21.436-79.258 183.979-248.081 174.763z"  horiz-adv-x="1024" />

    
    <glyph glyph-name="mianji" unicode="&#58957;" d="M1021.896676 893.960413 455.720154 893.960413l-1.912113 2.039587L451.640981 893.960413 2.103324 893.960413l0-1019.793352 237.038217 0 2.039587-2.167061L243.5394-125.832939 1021.896676-125.832939 1021.896676 893.960413zM65.840408 441.235902 476.944604 830.223329l185.092493 0L65.840408 266.277605 65.840408 441.235902zM65.840408 178.511639 754.647081 830.223329l176.87041 0L65.840408 11.456741 65.840408 178.511639zM958.159592 767.88846l0-130.08739L218.108303-62.095855 80.818623-62.095855 958.159592 767.88846zM384.270883 830.223329 65.840408 529.001867 65.840408 830.223329 384.270883 830.223329zM958.159592 550.226316l0-203.130088L525.384788-62.095855 310.909498-62.095855 958.159592 550.226316zM618.185983-62.095855 958.159592 259.648948 958.159592-62.095855 618.185983-62.095855z"  horiz-adv-x="1024" />

    
    <glyph glyph-name="weibo1" unicode="&#59115;" d="M1012.49024 444.44672v-0.15872c-6.69696-20.6592-28.86144-31.98976-49.44896-25.28768a39.35232 39.35232 0 0 0-25.28768 49.58208l-0.06656 0.03072c20.53632 63.60064 7.51616 136.15616-40.31488 189.3632-47.89248 53.21216-118.5024 73.55392-183.7312 59.65824-21.2224-4.53632-42.13248 9.04704-46.63808 30.30016-4.5056 21.25312 9.02144 42.19392 30.23872 46.73024 91.70944 19.56352 191.11424-8.98048 258.46784-83.88096 67.35872-74.83904 85.51424-176.84992 56.7808-266.33728zM740.4288 591.65184v0.03072c-18.21696-3.97312-36.17792 7.7312-40.05888 26.0096-3.94752 18.30912 7.76192 36.37248 25.97888 40.25344 44.69248 9.5488 93.14304-4.32128 125.88544-40.7808 32.86528-36.49536 41.63072-86.1696 27.60704-129.77152a33.83296 33.83296 0 0 0-42.56256-21.84704c-17.78176 5.76-27.48416 24.91392-21.72416 42.69056h-0.06144c6.8864 21.34528 2.56512 45.63456-13.46048 63.47264-16.0256 17.8176-39.75168 24.54528-61.60384 19.9424zM770.47808 399.46752c-14.45888 4.352-24.35072 7.32672-16.77312 26.35264 16.3328 41.31328 18.02752 76.96384 0.31744 102.38464-33.31072 47.73376-124.45184 45.1328-228.8384 1.28 0 0.06144-32.79872-14.36672-24.41216 11.70432 16.05632 51.77344 13.6448 95.18592-11.36128 120.192-56.65792 56.87808-207.30368-2.11968-336.47616-131.64032C56.18688 432.68096 0 329.86112 0 240.90112c0-170.08128 217.50272-273.49504 430.27968-273.49504 278.91712 0 464.52736 162.50368 464.52736 291.58912 0 77.93664-65.54624 122.19392-124.32896 140.47232z m-339.6352-371.08736c-169.77408-16.83968-316.34944 60.15488-327.36768 171.96032-11.04896 111.73888 117.71904 216.03328 287.488 232.87296 169.8048 16.83968 316.35456-60.16 327.36768-171.904 11.01824-111.86688-117.6832-216.0896-287.488-232.92928zM447.80544 347.14112c-80.78336 21.08928-172.11904-19.28704-207.2064-90.6496-35.74272-72.86272-1.18784-153.68192 80.44032-180.10112 84.57728-27.35616 184.23296 14.52544 218.88 93.14816 34.18112 76.81024-8.47872 155.93984-92.11392 177.60256z m-61.68576-185.9328c-16.43008-26.2912-51.584-37.80608-78.06464-25.66144-26.10688 11.88864-33.83296 42.43968-17.40288 68.0448 16.21504 25.53856 50.20672 36.86912 76.49792 25.856 26.60352-11.392 35.08736-41.68704 18.9696-68.23936z"  horiz-adv-x="1026" />

    
    <glyph glyph-name="jiangbei1" unicode="&#58996;" d="M954.181818 756.363636h-162.909091V826.181818c0 25.6-20.945455 46.545455-46.545454 46.545455H279.272727c-25.6 0-46.545455-20.945455-46.545454-46.545455v-69.818182H69.818182c-25.6 0-46.545455-20.945455-46.545455-46.545454v-46.545455c0-253.672727 193.163636-463.127273 442.181818-486.4V81.454545h-46.545454c-76.8 0-139.636364-62.836364-139.636364-139.636363v-46.545455h465.454546v46.545455c0 76.8-62.836364 139.636364-139.636364 139.636363h-46.545454v95.418182c249.018182 23.272727 442.181818 232.727273 442.181818 486.4V709.818182c0 25.6-20.945455 46.545455-46.545455 46.545454zM116.363636 663.272727h116.363637v-209.454545c0-27.927273 4.654545-55.854545 11.636363-81.454546C165.236364 444.509091 116.363636 546.909091 116.363636 663.272727z m663.272728-290.909091c6.981818 25.6 11.636364 53.527273 11.636363 81.454546v209.454545h116.363637c0-116.363636-48.872727-218.763636-128-290.909091z"  horiz-adv-x="1024" />

    
    <glyph glyph-name="local_bar" unicode="&#58995;" d="M614.4-70.4h-313.6c-38.4 0-76.8 12.8-108.8 44.8-25.6 32-44.8 70.4-44.8 108.8v441.6c0 12.8 12.8 25.6 25.6 25.6h569.6c12.8 0 25.6-12.8 25.6-25.6v-25.728c96.142-3.372 172.8-82.122 172.8-178.777 0-0.104-0-0.208-0-0.311 0-57.584-25.6-108.784-70.4-140.784-12.8-12.8-19.2-12.8-25.6-12.8-6.4 0-12.8 6.4-19.2 12.8-6.4 12.8-6.4 25.6 6.4 38.4 32 25.6 51.2 64 51.2 102.4 0.003 0.339 0.005 0.739 0.005 1.14 0 66.021-50.31 120.291-114.684 126.563l-0.521-364.503c0-38.4-19.2-76.8-44.8-108.8-32-25.6-70.4-44.8-108.8-44.8zM198.4 499.2v-416c0-25.6 12.8-51.2 32-70.4 19.2-19.2 44.8-32 70.4-32h313.6c25.6 0 51.2 12.8 70.4 32 19.2 19.2 32 44.8 32 70.4v416h-518.4zM307.2 633.6c-12.8 0-25.6 12.8-25.6 25.6v89.6c0 19.2 12.8 25.6 25.6 25.6s25.6-12.8 25.6-25.6v-96c0-12.8-12.8-19.2-25.6-19.2zM454.4 633.6c-12.8 0-25.6 12.8-25.6 25.6v153.6c0 12.8 12.8 25.6 25.6 25.6s25.6-12.8 25.6-25.6v-153.6c0-19.2-6.4-25.6-25.6-25.6zM608 633.6c-12.8 0-25.6 6.4-25.6 25.6v89.6c0 19.2 12.8 25.6 25.6 25.6s25.6-12.8 25.6-25.6v-96c0-12.8-12.8-19.2-25.6-19.2z"  horiz-adv-x="1024" />

    
    <glyph glyph-name="svg-" unicode="&#58893;" d="M475.366443 603.750175L109.235535 237.516938c-20.261017-20.261017-20.261017-53.006096 0-73.267113 20.158689-20.158689 53.006096-20.261017 73.267113 0l329.59968 329.59968 329.599681-329.59968c20.158689-20.158689 53.006096-20.261017 73.267113 0 20.261017 20.261017 20.158689 53.006096 0 73.267113l-366.335565 366.233237c-20.261017 20.158689-53.006096 20.158689-73.267114 0z"  horiz-adv-x="1024" />

    
    <glyph glyph-name="shuji" unicode="&#59014;" d="M870.628-37.106V681.512l0.002 0.047c0 4.625-1.144 8.982-3.157 12.806-4.585 8.718-13.705 14.667-24.234 14.667-0.083 0-0.163-0.006-0.244-0.006h-58.046V803.04c0 1.825-0.182 3.608-0.52 5.334-0.014 0.066-0.022 0.133-0.035 0.199-0.032 0.153-0.072 0.304-0.106 0.456a27.476 27.476 0 0 1-12.516 17.498 27.23 27.23 0 0 1-14.212 3.976H234.525c-47.997 0-87.12-38.813-87.894-86.762-0.025-0.477-0.038-0.957-0.038-1.44v-718.74c0-0.482 0.013-0.962 0.038-1.439 0.772-47.978 39.895-86.79 87.894-86.79H843.24c3.314 0 6.488 0.589 9.426 1.667 10.492 3.851 17.964 13.95 17.967 25.797l-0.004 0.097z m-636.103 812.68h495.643v-66.548H234.525c-18.294 0-33.152 14.923-33.152 33.275 0 18.347 14.858 33.272 33.152 33.272zM815.843-9.74H234.528c-18.297 0-33.153 14.922-33.153 33.303l-0.002 0.049V660.63a87.155 87.155 0 0 1 33.152-6.533h581.318V-9.74z m-478.05 485.284h329.515c15.09 0 27.39 12.305 27.39 27.465 0 15.163-12.3 27.464-27.39 27.464H337.793c-15.095 0-27.331-12.301-27.331-27.464 0-15.16 12.236-27.465 27.331-27.465z m0-124.514h170.819c15.148 0 27.389 12.304 27.389 27.464 0 15.165-12.242 27.465-27.39 27.465H337.794c-15.095 0-27.331-12.3-27.331-27.465 0-15.16 12.236-27.464 27.331-27.464z"  horiz-adv-x="1024" />

    
    <glyph glyph-name="xinxiang" unicode="&#58881;" d="M865.244 733.065H158.756c-55.332 0-100.347-45.032-100.347-100.365v-497.4c0-55.332 45.014-100.365 100.347-100.365h706.487c55.33 0 100.347 45.033 100.347 100.365V632.7c0 55.333-45.015 100.365-100.346 100.365z m-706.488-59.872h706.487c22.318 0 40.51-18.158 40.51-40.493v-1.857l-354.379-257.47c-20.978-15.235-57.773-15.251-78.75 0.017L118.246 630.86v1.84c0 22.336 18.19 40.493 40.51 40.493z m706.488-578.388H158.756c-22.32 0-40.51 18.157-40.51 40.494V556.855L437.41 324.97c20.909-15.2 47.767-22.818 74.59-22.818s53.681 7.601 74.588 22.8l319.165 231.884V135.29999999999995c0-22.336-18.192-40.494-40.51-40.494z"  horiz-adv-x="1024" />

    
    <glyph glyph-name="dingwei1" unicode="&#58961;" d="M512 570.176A186.133333 186.133333 0 0 1 325.824 384 186.133333 186.133333 0 0 1 512 197.824 186.133333 186.133333 0 0 1 698.176 384 186.133333 186.133333 0 0 1 512 570.176z m416.106667-139.626667C906.709333 624.64 752.64 778.709333 558.549333 800.106667V896h-93.098666v-95.893333C271.36 778.709333 117.290667 624.64 95.893333 430.549333H0v-93.098666h95.893333c21.397333-194.090667 175.466667-348.16 369.557334-369.557334V-128h93.098666v95.893333c194.090667 21.397333 348.16 175.466667 369.557334 369.557334H1024v93.098666h-95.893333zM512 58.176c-179.904 0-325.824 145.92-325.824 325.824S332.096 709.824 512 709.824 837.824 563.904 837.824 384 691.904 58.176 512 58.176z"  horiz-adv-x="1024" />

    
    <glyph glyph-name="sanjiaoxing1" unicode="&#58882;" d="M1021.53854993 642.77906694l-507.450348-507.45034794-507.43306972 507.4330697 1014.87601273 0.00987329z"  horiz-adv-x="1024" />

    
    <glyph glyph-name="facebook" unicode="&#58984;" d="M960 782.6v-797c0-27.4-22.2-49.4-49.4-49.4H682.2V283h116.4l17.4 135.2h-134v86.4c0 39.2 10.8 65.8 67 65.8h71.6v121c-12.4 1.6-54.8 5.4-104.4 5.4-103.2 0-174-63-174-178.8v-99.8h-116.8v-135.2h116.8V-64H113.4C86.2-64 64-41.8 64-14.6V782.6C64 809.8 86.2 832 113.4 832h797c27.4 0 49.6-22.2 49.6-49.4z"  horiz-adv-x="1024" />

    
    <glyph glyph-name="canju" unicode="&#59237;" d="M403.998583 895.930226v-315.090187H364.646324V895.930226h-78.79622v-315.090187h-39.442965V895.930226h-78.703521l-0.093696-354.626848c0.185398-43.416067 35.381149-78.611819 78.797217-78.611818l0.091703-472.544078v-78.797217c0-21.800234 17.644724-39.350265 39.351262-39.350265h78.79622c21.801231 0 39.351262 17.549034 39.351262 39.350265V226.443443s-0.093696 0-0.093696 0.091703V462.69156c43.509763 0 78.797217 35.287454 78.797217 78.797217l0.091702-39.351262V895.930226h-78.794226zM719.08877 895.977074c-65.309001 0-118.146485-52.885329-118.146485-118.148479V344.589929h78.795223V-88.649735c0-21.753386 17.551028-39.350265 39.351262-39.350265h78.797217c21.706539 0 39.258563 17.595882 39.258563 39.350265v866.477334C837.143554 843.091745 784.305072 895.977074 719.08877 895.977074"  horiz-adv-x="1024" />

    
    <glyph glyph-name="shafa" unicode="&#58889;" d="M884.09859 85.782c0.253 2.047 0.841 6.14 1.803 11.992 1.639 9.892 3.743 20.956 6.364 32.883 7.48 34.042 17.557 68.049 30.512 99.588a451.091 451.091 0 0 0 7.549 17.338c7.622 16.518 18.862 34.412 33.391 53.986 6.381 8.599 49.158 60.446 52.06 69.167 35.029 105.071-61.5 201.599-188.727 150.711a24.12 24.12 0 0 1-9.979-7.458L636.06859 284.717l18.942 9.182H365.39859c-13.329 0-24.13-10.805-24.13-24.134s10.801-24.135 24.13-24.135h289.611a24.136 24.136 0 0 1 18.939 9.178l181.008 229.278-9.979-7.457c88.255 35.305 147.307-23.746 125.01-90.628 0.52 1.546-4.584-5.138-12.153-14.306-16.81-20.377-23.202-28.32-32.875-41.358-16.348-22.02-29.239-42.553-38.46-62.527a494.227 494.227 0 0 1-8.366-19.225c-14.127-34.377-24.97-70.985-33.01-107.563-2.81-12.79-5.075-24.679-6.839-35.384-1.08-6.508-1.756-11.238-2.086-13.903-1.643-13.227 7.748-25.281 20.974-26.925 13.228-1.641 25.284 7.745 26.926 20.972z m-697.262 5.955c-0.336 2.664-1.012 7.394-2.086 13.903-1.77 10.704-4.034 22.594-6.844 35.384-8.04 36.578-18.885 73.186-33.007 107.563a495.786 495.786 0 0 1-8.37 19.225c-9.216 19.974-22.113 40.507-38.456 62.527-9.678 13.038-16.07 20.981-32.879 41.358-7.565 9.167-12.668 15.851-12.153 14.306-22.292 66.882 36.754 125.933 125.015 90.628l-9.98 7.457L273.91459 350.02c8.259-10.465 23.435-12.25 33.9-3.991 10.462 8.259 12.245 23.435 3.986 33.895L205.95859 513.99a24.14 24.14 0 0 1-9.98 7.458C68.75259 572.336-27.77141 475.808 7.25159 370.737c2.907-8.721 45.679-60.568 52.061-69.167 14.535-19.575 25.768-37.468 33.39-53.986a443.401 443.401 0 0 0 7.549-17.338c12.961-31.538 23.032-65.546 30.513-99.588 2.621-11.928 4.73-22.992 6.363-32.883 0.968-5.852 1.551-9.945 1.808-11.992 1.644-13.227 13.698-22.613 26.925-20.971 13.227 1.643 22.618 13.698 20.976 26.925z m9.624-111.579v96.534l-24.13-24.134h687.926l-24.135 24.134v-96.534c0-13.329 10.807-24.134 24.135-24.134s24.13 10.805 24.13 24.134v96.534c0 13.329-10.802 24.135-24.13 24.135H172.33059c-13.329 0-24.134-10.806-24.134-24.135v-96.534c0-13.329 10.805-24.134 24.134-24.134s24.13 10.805 24.13 24.134z m-24.13 543.014v168.88c0 40.016 32.443 72.458 72.443 72.458h506.727c40.012 0 72.443-32.438 72.443-72.458v-168.88h48.269v168.88c0 66.678-54.043 120.728-120.713 120.728H244.77359c-66.658 0-120.713-54.055-120.713-120.728v-168.88h48.27z m0 0"  horiz-adv-x="1024" />

    
    <glyph glyph-name="lipin" unicode="&#59020;" d="M947.2 640h-153.6512c16.128 21.4016 25.6512 48.0256 25.6512 76.8C819.2 787.3536 761.7536 844.8 691.2 844.8c-71.168 0-130.8672-56.3712-160.1024-90.0096A375.3472 375.3472 0 0 1 486.4 691.5584a377.4464 377.4464 0 0 1-44.6976 63.232C412.4672 788.3776 352.768 844.8 281.6 844.8A128.1536 128.1536 0 0 1 153.6 716.8c0-28.7744 9.5744-55.3984 25.6512-76.8H25.6a25.6 25.6 0 0 1-25.6-25.6v-153.6a25.6 25.6 0 0 1 25.6-25.6H51.2v-486.4c0-42.3424 34.4576-76.8 76.8-76.8h716.8c42.3424 0 76.8 34.4576 76.8 76.8V435.2h25.6a25.6 25.6 0 0 1 25.6 25.6v153.6a25.6 25.6 0 0 1-25.6 25.6z m-377.4976 81.2032C609.7408 767.232 654.0288 793.6 691.2 793.6c42.3424 0 76.8-34.4576 76.8-76.8S733.5424 640 691.2 640h-172.9536c8.8576 22.6304 26.7776 52.8384 51.456 81.2032zM563.2-76.8H409.6V588.8h153.6v-665.6zM204.8 716.8C204.8 759.1424 239.2576 793.6 281.6 793.6c37.1712 0 81.4592-26.368 121.4976-72.3968 24.6784-28.3648 42.5984-58.5728 51.456-81.2032H281.6C239.2576 640 204.8 674.4576 204.8 716.8zM51.2 588.8h307.2v-102.4H51.2V588.8z m51.2-640V435.2h256v-512H128a25.6 25.6 0 0 0-25.6 25.6z m768 0a25.6 25.6 0 0 0-25.6-25.6H614.4V435.2h256v-486.4zM921.6 486.4h-307.2V588.8h307.2v-102.4z"  horiz-adv-x="1024" />

    
    <glyph glyph-name="xiaochengxu" unicode="&#58918;" d="M785.2544 273.6128c-36.864-7.168-68.2496 0-84.8384 34.1504-14.7456 30.5152 5.5296 55.6544 27.648 73.6256 11.1104 9.0112 25.856 16.1792 36.9152 21.5552 55.296 30.5664 99.584 70.0928 71.936 138.3424-25.8048 62.8736-82.9952 79.0528-147.5584 70.0416-71.936-8.96-110.6432-50.2784-110.6432-122.1632 0-111.36 3.6864-222.72-1.8432-334.1312-5.5296-123.9552-143.872-235.3664-274.8416-231.7312C163.7376-71.3216 49.3568 40.0384 51.2 205.312c3.6864 77.2096 73.7792 140.0832 169.6768 179.6096 42.4448 17.9712 81.152 19.7632 103.3216-26.9312 25.8048-53.9136-18.432-70.0416-55.3472-86.2208-70.5536-28.7744-107.4176-79.0528-72.3968-150.9376 33.2288-68.2496 101.4272-82.6368 169.6768-57.4464 59.0336 19.7632 82.9952 64.6656 81.152 125.7472a8232.448 8232.448 0 0 0 0 301.824c1.8432 120.32 60.8768 197.632 171.52 237.1072 103.2704 35.9424 232.3968 1.792 302.4896-77.2608 111.104-125.7472 31.7952-344.9344-136.0384-377.2416z"  horiz-adv-x="1024" />

    
    <glyph glyph-name="you" unicode="&#58980;" d="M640 384L326.4 736c-19.2 19.2-12.8 51.2 6.4 70.4 19.2 19.2 51.2 12.8 70.4-6.4l339.2-384c19.2-19.2 19.2-44.8 0-64l-339.2-384c-19.2-19.2-44.8-19.2-70.4-6.4s-19.2 44.8-6.4 70.4L640 384z"  horiz-adv-x="1024" />

    
    <glyph glyph-name="googleplus-square-f" unicode="&#59352;" d="M880 784H144c-17.7 0-32-14.3-32-32v-736c0-17.7 14.3-32 32-32h736c17.7 0 32 14.3 32 32V752c0 17.7-14.3 32-32 32zM548.5 273.2c-43.9-61.8-132.1-79.8-200.9-53.3-69 26.3-118 99.2-112.1 173.5 1.5 90.9 85.2 170.6 176.1 167.5 43.6 2 84.6-16.9 118-43.6-14.3-16.2-29-31.8-44.8-46.3-40.1 27.7-97.2 35.6-137.3 3.6-57.4-39.7-60-133.4-4.8-176.1 53.7-48.7 155.2-24.5 170.1 50.1-33.6 0.5-67.4 0-101 1.1-0.1 20.1-0.2 40.1-0.1 60.2 56.2 0.2 112.5 0.3 168.8-0.2 3.3-47.3-3-97.5-32-136.5zM791 359.5c-16.8-0.2-33.6-0.3-50.4-0.4-0.2-16.8-0.3-33.6-0.3-50.4H690c-0.2 16.8-0.2 33.5-0.3 50.3-16.8 0.2-33.6 0.3-50.4 0.5v50.1c16.8 0.2 33.6 0.3 50.4 0.3 0.1 16.8 0.3 33.6 0.4 50.4h50.2l0.3-50.4c16.8-0.2 33.6-0.2 50.4-0.3v-50.1z"  horiz-adv-x="1024" />

    
    <glyph glyph-name="jiezhi" unicode="&#59207;" d="M897.99168 626.5088l-132.15744 204.91264H258.94912L129.9968 623.43168l383.77984-315.31008 384.21504 318.3872zM442.7008 553.79968h142.99648L514.2016 408.66816 442.7008 553.79968z m133.12-134.10304l66.67776 135.34208 146.45248 31.41632-213.13024-166.7584z m159.49824 366.28992l91.32032-140.43136-176.76288-34.62656-97.88928 175.05792h183.33184z m-140.43648-177.62304h-156.3136l78.1568 139.98592 78.1568-139.98592zM287.03744 785.98144l190.5664-0.0512-93.8752-174.72512-173.34784 47.01184 76.65664 127.76448z m-43.49952-193.36704l141.9264-36.68992 67.1488-136.30464-209.0752 172.99456zM705.70496 499.33312v-24.02304h-49.42336a265.32864 265.32864 0 0 0 16.15872-11.5712c62.8736-48.77312 103.40864-125.03552 103.40864-210.59072 0-146.89792-119.51104-266.40896-266.40896-266.40896-146.89792 0-266.40896 119.51104-266.40896 266.40896 0 90.81344 45.67552 171.16672 115.26144 219.27936 1.42848 0.98816 2.8928 1.92512 4.34176 2.88256H309.00736v20.56704c-69.9136-57.8304-114.6112-145.1264-114.6112-242.72896 0-173.7216 141.33248-315.04896 315.04896-315.04896 173.7216 0 315.04896 141.33248 315.04896 315.04896-0.00512 99.54816-46.464 188.40576-118.78912 246.18496z"  horiz-adv-x="1024" />

    
    <glyph glyph-name="arrow-down" unicode="&#58904;" d="M212.992 874.66666667l1212.416 0a102.4 102.4 0 0 0 79.872-166.2976l-606.208-757.76a102.4 102.4 0 0 0-159.744 0L133.12 708.3690666699999A102.4 102.4 0 0 0 212.992 874.66666667z"  horiz-adv-x="1638" />

    
    <glyph glyph-name="xiangshang1" unicode="&#58886;" d="M284.672 41.98400000000004l309.24799999 313.344-309.24799999 313.344q-14.336 14.336-21.50400001 32.768t-7.16799999 37.376 7.168 36.864 21.50400001 32.256q28.672 29.69599999 68.60799999 29.696t68.60799999-29.696l373.76000001-376.832q14.336-14.336 22.528-34.304t9.216-40.448-5.12-39.424-20.48-31.232l-379.90400001-382.976q-28.672-28.672-68.60799999-28.672t-68.60799999 28.672q-14.336 14.336-21.50400001 32.768t-7.16799999 37.376 7.16799999 36.864 21.504 32.256z"  horiz-adv-x="1024" />

    
    <glyph glyph-name="xiangshang-copy" unicode="&#58888;" d="M739.328 726.016l-309.24799999-313.344 309.24799999-313.344q14.336-14.336 21.50400001-32.768t7.16799999-37.376-7.168-36.864-21.50400001-32.256q-28.672-29.69599999-68.60799999-29.696t-68.60799999 29.696l-373.76000001 376.832q-14.336 14.336-22.528 34.304t-9.216 40.448 5.12 39.424 20.48 31.232l379.90400001 382.976q28.672 28.672 68.60799999 28.672t68.60799999-28.672q14.336-14.336 21.50400001-32.768t7.16799999-37.376-7.16799999-36.864-21.504-32.256z"  horiz-adv-x="1024" />

    
    <glyph glyph-name="dingwei2" unicode="&#58934;" d="M847.973714 575.514192A335.706308 335.706308 0 0 1 509.546933 895.985854 331.897646 331.897646 0 0 1 176.017003 575.514192c0-163.228351 329.721268-557.15277 329.721269-557.152771S847.973714 406.300801 847.973714 575.514192z m-444.525209-11.425985a112.083467 112.083467 0 1 0 114.259846-108.8189 108.8189 108.8189 0 0 0-114.259846 108.8189z m217.637801-555.520487a42.439371 42.439371 0 0 0 0-8.705512c0-30.469292-50.056694-54.40945-112.083467-54.40945s-108.8189 24.484253-108.818901 54.40945a42.439371 42.439371 0 0 0 0 8.705512c-67.467718-12.514174-113.171657-36.454332-113.171656-63.659057 0-40.262993 100.113388-72.908663 223.62284-72.908663s224.166935 32.64567 224.166935 72.908663c0 27.204725-45.703938 51.144883-113.171656 63.659057z"  horiz-adv-x="1024" />

    
    <glyph glyph-name="twitter" unicode="&#58959;" d="M635.971419 646.55325a134.416887 134.416887 0 0 0 97.757736-42.25701 253.166596 253.166596 0 0 1 80.691092 32.597289 136.157685 136.157685 0 0 0-53.179662-72.669769 281.121759 281.121759 0 0 1 70.860706 18.295442 308.599055 308.599055 0 0 0-61.644718-64.546047v-5.973326c0-1.979731 0-3.857062-0.3072-5.700259s0-3.413329 0.3072-5.051726A379.152561 379.152561 0 0 0 191.829078 178.210408a277.947363 277.947363 0 0 1 189.815213 56.388191 128.375295 128.375295 0 0 0-121.719304 92.159877 165.000313 165.000313 0 0 1 58.709255 1.843198 134.075555 134.075555 0 0 0-105.574259 132.027557 136.021152 136.021152 0 0 1 58.709255-16.315711 132.26649 132.26649 0 0 0-38.741282 177.970962 372.052837 372.052837 0 0 1 271.700971-140.321946 140.25368 140.25368 0 0 0-3.413329 29.832494 134.86062 134.86062 0 0 0 134.621687 134.75822zM170.768839 895.999317a170.188573 170.188573 0 0 1-170.666439-170.666439v-682.665756a170.188573 170.188573 0 0 1 170.666439-170.666439h682.665756a170.188573 170.188573 0 0 1 170.66644 170.666439V725.332878a170.222706 170.222706 0 0 1-170.66644 170.666439z"  horiz-adv-x="1024" />

    
    <glyph glyph-name="chuang1" unicode="&#58884;" d="M147.91111111 323.31851852h819.2c8.25268148 0 15.4130963-3.03407408 21.35988148-8.98085927s8.98085925-13.22856297 8.98085926-21.35988147v-212.38518519H876.08888889V201.95555554999999H147.91111111v-121.36296296H26.54814815V657.06666667c0 8.25268148 3.03407408 15.4130963 8.98085926 21.35988148 6.06814815 6.06814815 13.1072 8.98085925 21.35988148 8.98085926h60.68148148c8.25268148 0 15.4130963-3.03407408 21.35988148-8.98085926 6.06814815-6.06814815 8.98085925-13.22856297 8.98085926-21.35988148v-333.74814815z m237.50731852 65.90008889c23.66577778 23.66577778 35.55934815 52.30743703 35.55934815 85.92497777s-11.77220741 62.01647408-35.55934815 85.92497779c-23.78714075 23.78714075-52.30743703 35.55934815-85.92497778 35.55934814s-62.01647408-11.77220741-85.92497777-35.55934814c-23.78714075-23.78714075-35.55934815-52.30743703-35.55934816-85.92497779s11.77220741-62.01647408 35.55934816-85.92497777c23.66577778-23.66577778 52.30743703-35.55934815 85.92497777-35.55934816s62.2592 11.77220741 85.92497778 35.55934816zM997.45185185 353.65925925v30.34074075c0 50.24426667-17.71899259 93.20675555-53.3997037 128.64474075-35.55934815 35.55934815-78.40047408 53.3997037-128.64474074 53.3997037H481.65925925c-8.25268148 0-15.4130963-3.03407408-21.35988147-8.98085927-6.06814815-6.06814815-8.98085925-13.22856297-8.98085926-21.35988148v-182.04444445h546.13333333z"  horiz-adv-x="1024" />

    
    <glyph glyph-name="dianhua" unicode="&#59239;" d="M1003.008 30.3104c-213.0944 8.4992-423.7312 94.1056-586.4448 256.8192-163.2256 163.2256-248.832 374.5792-256.9216 588.288-22.1184 2.7648-45.2608-4.1984-62.1568-21.0944L57.344 814.1824c-44.032-44.032-61.8496-107.8272-47.104-168.448 37.376-153.6 110.1824-300.3392 218.3168-427.3152l119.296-119.296c125.952-107.2128 271.2576-179.712 423.5264-217.3952 60.6208-15.0528 124.7232 2.8672 168.96 47.104l41.3696 41.3696c16.384 16.2816 23.4496 38.6048 21.2992 60.1088zM245.0432 474.4192L61.8496 818.688l57.5488 57.5488c20.2752 20.2752 53.4528 20.2752 73.728 0l190.0544-190.0544c20.2752-20.2752 20.2752-53.4528 0-73.728L245.0432 474.4192zM601.7024 117.6576l344.3712-183.0912 57.5488 57.5488c20.2752 20.2752 20.2752 53.4528 0 73.728L813.6704 255.8976c-20.2752 20.2752-53.4528 20.2752-73.728 0l-138.24-138.24z"  horiz-adv-x="1024" />

    
    <glyph glyph-name="zuo" unicode="&#59378;" d="M738.645333 3.754667a47.786667 47.786667 0 0 0-67.584-67.584L305.288533 301.943467a116.053333 116.053333 0 0 0 0 164.113066L671.061333 831.829333a47.786667 47.786667 0 1 0 67.584-67.584L372.872533 398.472533a20.48 20.48 0 0 1 0-28.945066l365.7728-365.7728z"  horiz-adv-x="1024" />

    
    <glyph glyph-name="yishu" unicode="&#58891;" d="M379.904 751.488c-41.536 0-75.84-34.432-75.84-76.992s33.28-76.928 75.84-76.928c41.536 0 75.84 34.368 75.84 76.928 0 42.56-33.28 76.992-75.84 76.992zM221.056 540.8a76.672 76.672 0 0 1-75.904-76.8c0-42.688 33.28-76.992 75.904-76.992 40.96 0 75.84 34.304 75.84 76.928A75.776 75.776 0 0 1 221.056 540.8zM510.336 896C228.096 896 0 665.856 0 383.744c0-282.048 229.248-511.68 510.336-511.68 62.336 0 113.536 51.264 113.536 113.472 0 27.84-9.856 55.552-27.904 73.728-9.856 11.84-12.544 20.16-12.544 29.888 0 25.088 20.8 45.888 45.888 45.888h95.552C889.728 135.04 1024 270.912 1024 436.672 1020.16 689.92 790.272 896 510.336 896z m223.232-699.968H634.24a117.888 117.888 0 0 1-117.376-117.184c0-34.88 15.872-58.88 27.328-74.752l2.752-4.416a45.056 45.056 0 0 0 10.368-28.928c0-25.6-21.312-47.36-47.424-47.36-254.336 0-459.648 207.232-459.648 460.928S257.088 844.8 509.76 844.8c253.248 0 460.16-183.872 465.088-406.4 0-133.12-109.184-242.368-241.28-242.368z m-91.776 555.456c-41.408 0-75.84-34.432-75.84-76.992s33.28-76.928 75.84-76.928c41.536 0 75.968 34.368 75.968 76.928 0 42.56-33.28 76.992-75.968 76.992z m158.976-210.688a76.672 76.672 0 0 1-75.904-76.8c0-42.688 33.28-76.992 75.904-76.992a76.736 76.736 0 0 1 75.84 76.928 75.84 75.84 0 0 1-75.84 76.864z"  horiz-adv-x="1024" />

    
    <glyph glyph-name="shouyexian" unicode="&#58898;" d="M44.032 421.302857c-12.434286 0-25.014857 3.876571-33.426286 15.652572-16.676571 15.725714-12.434286 43.154286 4.242286 54.930285L434.688 872.448c46.006857 31.451429 112.859429 31.451429 154.624 0l419.84-376.685714c16.749714-11.702857 20.918857-39.204571 4.242286-54.857143-16.749714-15.725714-41.837714-19.602286-58.514286-3.949714L539.062857 805.741714c-12.507429 7.899429-37.595429 7.899429-50.102857 0l-419.84-376.685714c-8.411429-7.753143-16.822857-7.753143-25.161143-7.753143zM837.851429-128H639.414857c-25.014857 0-41.764571 15.725714-41.764571 39.204571v184.393143c0 27.501714-50.102857 54.930286-87.771429 54.930286-37.595429 0-83.529143-23.478857-83.529143-54.857143v-184.466286c0-23.478857-16.749714-39.204571-41.764571-39.204571h-190.171429c-62.610286 0-108.544 43.154286-108.544 98.084571V342.820571c0 23.552 16.676571 39.204571 41.691429 39.204572 25.161143 0 41.837714-15.652571 41.837714-39.204572v-372.736c0-11.702857 8.338286-19.602286 25.088-19.602285h152.502857v145.115428c0 78.482286 87.771429 133.412571 167.131429 133.412572 79.36 0 171.300571-54.857143 171.300571-133.412572v-145.115428h156.598857c12.580571 0 20.918857 0 20.918858 23.552V342.820571c0 23.552 16.749714 39.204571 41.764571 39.204572 25.088 0 41.837714-15.652571 41.837714-39.204572v-372.736c-4.242286-58.88-46.006857-98.084571-108.690285-98.084571z"  horiz-adv-x="1024" />

    
    <glyph glyph-name="zhekou" unicode="&#58924;" d="M887.232 896H578.496c-36.544 0-70.848-14.208-96.704-40.064L40 414.208a136.96 136.96 0 0 1 0-193.408l308.736-308.736c25.856-25.856 60.16-40.064 96.704-40.064s70.848 14.208 96.704 40.064l441.728 441.728c25.856 25.856 40.064 60.16 40.064 96.704V759.232A136.896 136.896 0 0 1 887.232 896z m72.704-445.504c0-19.328-7.68-37.824-21.312-51.456l-441.728-441.728a72.512 72.512 0 0 0-102.912 0L85.248 266.048a72.768 72.768 0 0 0 0 102.912l441.728 441.728A72.96 72.96 0 0 0 578.496 832h308.736C927.424 832 960 799.424 960 759.232v-308.736zM587.2 640.192c-24.192-24.192-37.504-56.32-37.504-90.496 0-34.24 13.312-66.368 37.504-90.496 24.96-24.96 57.728-37.44 90.496-37.44s65.536 12.48 90.496 37.44c24.192 24.128 37.504 56.32 37.504 90.496s-13.312 66.304-37.504 90.496a128 128 0 0 1-180.992 0z m135.744-135.744a64 64 0 0 0-90.496 90.496 64 64 0 1 0 90.496-90.496z"  horiz-adv-x="1024" />

    
    <glyph glyph-name="weixin1" unicode="&#58885;" d="M693.12 548.736c11.776 0 23.36-0.896 35.008-2.176-31.36 146.048-187.456 254.528-365.696 254.528C163.2 801.088 0 665.344 0 492.864c0-99.52 54.272-181.248 145.024-244.736L108.8 139.136l126.72 63.488c45.312-8.896 81.664-18.112 126.912-18.112 11.392 0 22.656 0.512 33.792 1.344-7.04 24.256-11.2 49.6-11.2 76.032 0.064 158.336 136 286.848 308.096 286.848z m-194.816 98.24c27.392 0 45.376-17.984 45.376-45.248 0-27.136-17.984-45.312-45.376-45.312-27.072 0-54.336 18.176-54.336 45.312 0 27.328 27.2 45.248 54.336 45.248z m-253.632-90.56c-27.2 0-54.592 18.176-54.592 45.312 0 27.264 27.392 45.248 54.592 45.248s45.248-17.92 45.248-45.248c0-27.136-18.048-45.312-45.248-45.312zM1024 266.24c0 144.896-145.024 262.976-307.904 262.976-172.48 0-308.224-118.144-308.224-262.976 0-145.28 135.808-262.976 308.224-262.976 36.096 0 72.512 9.024 108.736 18.112l99.392-54.528-27.264 90.624C969.728 112.128 1024 184.512 1024 266.24z m-407.872 45.376c-17.984 0-36.224 17.92-36.224 36.224 0 18.048 18.24 36.224 36.224 36.224 27.52 0 45.376-18.176 45.376-36.224 0-18.304-17.856-36.224-45.376-36.224z m199.36 0c-17.856 0-36.032 17.92-36.032 36.224 0 18.048 18.112 36.224 36.032 36.224 27.264 0 45.376-18.176 45.376-36.224 0-18.304-18.112-36.224-45.376-36.224z"  horiz-adv-x="1024" />

    
    <glyph glyph-name="xiong" unicode="&#58921;" d="M522.667 52.659c117.723 0 208.411 68.016 208.411 143.775 0 75.76-90.688 143.776-208.411 143.776-117.724 0-208.412-68.016-208.412-143.776S404.943 52.66 522.667 52.66z m0-50.133c-142.79 0-258.545 86.816-258.545 193.908 0 107.093 115.754 193.909 258.545 193.909 142.79 0 258.544-86.816 258.544-193.909 0-107.092-115.754-193.908-258.544-193.908zM328.758 397.594c49.542 0 89.703 40.162 89.703 89.703 0 49.542-40.161 89.703-89.703 89.703-49.541 0-89.703-40.161-89.703-89.703 0-49.541 40.162-89.703 89.703-89.703z m0 50.134c-21.854 0-39.57 17.715-39.57 39.57 0 21.853 17.716 39.569 39.57 39.569s39.57-17.716 39.57-39.57-17.716-39.57-39.57-39.57zM716.575 397.594c49.542 0 89.703 40.162 89.703 89.703 0 49.542-40.161 89.703-89.703 89.703-49.541 0-89.703-40.161-89.703-89.703 0-49.541 40.162-89.703 89.703-89.703z m0 50.134c-21.853 0-39.57 17.715-39.57 39.57 0 21.853 17.717 39.569 39.57 39.569 21.854 0 39.57-17.716 39.57-39.57s-17.716-39.57-39.57-39.57zM932.149 128.84c44.272 68.626 68.038 147.297 68.038 229.185 0 246.31-214.191 445.202-477.52 445.202-263.33 0-477.52-198.892-477.52-445.202s214.19-445.202 477.52-445.202c121.86 0 236.674 42.754 324.363 118.448 10.48 9.046 11.641 24.875 2.595 35.354-9.046 10.48-24.875 11.642-35.354 2.596-78.59-67.84-181.779-106.265-291.604-106.265-236.437 0-427.387 177.31-427.387 395.069 0 217.758 190.95 395.068 427.387 395.068s427.386-177.31 427.386-395.068c0-72.125-20.922-141.384-60.032-202.007-7.504-11.633-4.158-27.148 7.475-34.652 11.634-7.505 27.148-4.159 34.653 7.475zM933.297 554.855c41.982 33.922 66.89 84.922 66.89 139.958 0 99.33-80.523 179.854-179.854 179.854-72.894 0-137.725-43.775-165.672-109.752l46.163-19.554c20.162 47.599 66.923 79.172 119.51 79.172 71.642 0 129.72-58.077 129.72-129.72 0-39.728-17.94-76.46-48.264-100.963l31.507-38.995zM131.926 593.85c-30.325 24.503-48.264 61.235-48.264 100.963 0 71.643 58.078 129.72 129.72 129.72 52.587 0 99.348-31.573 119.51-79.172l46.163 19.554C351.108 830.892 286.277 874.667 213.382 874.667c-99.33 0-179.853-80.523-179.853-179.854 0-55.036 24.907-106.036 66.89-139.958l31.507 38.995zM534.522 203.788c38.24 0 69.24 31 69.24 69.24 0 38.24-31 69.24-69.24 69.24-38.24 0-69.24-31-69.24-69.24 0-38.24 31-69.24 69.24-69.24z m0 50.133c-10.552 0-19.107 8.555-19.107 19.107 0 10.553 8.555 19.107 19.107 19.107 10.553 0 19.107-8.554 19.107-19.107 0-10.552-8.554-19.107-19.107-19.107z"  horiz-adv-x="1024" />

    


  </font>
</defs>
</svg>
